<?xml version="1.0" ?><svg enable-background="new 0 0 32 32" version="1.1" viewBox="0 0 32 32" xml:space="preserve" xmlns="http://www.w3.org/2000/svg" xmlns:xlink="http://www.w3.org/1999/xlink"><g id="OC_2"><g><path d="M4,31.5c-1.93,0-3.5-1.57-3.5-3.5V4c0-1.93,1.57-3.5,3.5-3.5h24c1.93,0,3.5,1.57,3.5,3.5v24c0,1.93-1.57,3.5-3.5,3.5H4z"/><g><path d="M28,1c1.654,0,3,1.346,3,3v24c0,1.654-1.346,3-3,3H4c-1.654,0-3-1.346-3-3V4c0-1.654,1.346-3,3-3H28      M28,0H4C1.8,0,0,1.8,0,4v24c0,2.2,1.8,4,4,4h24c2.2,0,4-1.8,4-4V4C32,1.8,30.2,0,28,0L28,0z" fill="#FFD835"/></g></g><path d="M22.754,10.444c-0.016,0.023-1.42,2.05-4.873,3.461c0.203,0.417,0.4,0.842,0.582,1.268   c0.065,0.153,0.128,0.303,0.189,0.453c3.005-0.378,5.965,0.258,6.091,0.284C24.723,13.837,23.981,11.934,22.754,10.444z    M19.185,17.006c1.147,3.152,1.613,5.72,1.702,6.247c1.963-1.325,3.359-3.429,3.748-5.867   C24.455,17.328,22.008,16.554,19.185,17.006z M19.414,24.053c-0.129-0.764-0.637-3.443-1.868-6.641   c-0.02,0.007-0.039,0.013-0.059,0.02c-5.16,1.798-6.846,5.424-6.864,5.464c1.485,1.155,3.347,1.852,5.376,1.852   C17.211,24.746,18.365,24.499,19.414,24.053z M17.209,12.601c3.3-1.237,4.546-3.133,4.567-3.165   C20.236,8.078,18.214,7.255,16,7.255c-0.711,0-1.4,0.086-2.061,0.245C14.07,7.675,15.713,9.855,17.209,12.601z M16.95,15.962   c-0.219-0.497-0.459-0.995-0.709-1.487c-4.504,1.348-8.825,1.252-8.979,1.246C7.258,15.815,7.254,15.906,7.254,16   c0,2.247,0.848,4.296,2.241,5.843c-0.003-0.004,2.391-4.25,7.11-5.777C16.718,16.029,16.835,15.995,16.95,15.962z M26.033,13.938   c0.138,0.674,0.209,1.368,0.209,2.062c0,0.693-0.071,1.386-0.209,2.061c-0.135,0.659-0.335,1.307-0.597,1.925   c-0.256,0.607-0.573,1.193-0.944,1.739c-0.365,0.543-0.787,1.051-1.249,1.516c-0.464,0.461-0.974,0.882-1.515,1.25   c-0.548,0.369-1.133,0.686-1.74,0.944c-0.619,0.261-1.266,0.461-1.924,0.596c-0.675,0.139-1.369,0.21-2.063,0.21   c-0.695,0-1.388-0.071-2.063-0.21c-0.659-0.135-1.307-0.335-1.925-0.596c-0.607-0.258-1.193-0.575-1.741-0.944   c-0.542-0.368-1.051-0.788-1.514-1.25c-0.463-0.464-0.884-0.973-1.25-1.516c-0.369-0.546-0.687-1.133-0.944-1.739   c-0.262-0.619-0.463-1.266-0.598-1.925C5.828,17.386,5.758,16.694,5.758,16c0-0.695,0.07-1.388,0.207-2.062   c0.136-0.659,0.336-1.307,0.598-1.925c0.257-0.608,0.575-1.194,0.944-1.741c0.366-0.543,0.787-1.051,1.25-1.516   c0.463-0.462,0.972-0.882,1.514-1.249c0.548-0.371,1.133-0.689,1.741-0.946c0.618-0.262,1.266-0.462,1.925-0.597   C14.612,5.828,15.305,5.758,16,5.758c0.693,0,1.387,0.07,2.063,0.208c0.658,0.134,1.305,0.335,1.924,0.597   c0.607,0.258,1.192,0.576,1.74,0.946c0.542,0.367,1.052,0.787,1.515,1.249c0.462,0.464,0.884,0.972,1.249,1.516   c0.371,0.546,0.689,1.132,0.944,1.741C25.698,12.631,25.898,13.279,26.033,13.938z M15.516,13.129   c-1.514-2.69-3.131-4.885-3.248-5.04c-2.439,1.152-4.259,3.4-4.827,6.108C7.671,14.199,11.316,14.245,15.516,13.129z" fill="#FFFFFF"/></g></svg>